<?xml version="1.0" standalone="no"?>
<!DOCTYPE svg PUBLIC "-//W3C//DTD SVG 20010904//EN"
 "http://www.w3.org/TR/2001/REC-SVG-20010904/DTD/svg10.dtd">
<svg version="1.0" xmlns="http://www.w3.org/2000/svg"
 width="512.000000pt" height="512.000000pt" viewBox="0 0 512.000000 512.000000"
 preserveAspectRatio="xMidYMid meet">
<metadata>
Created by potrace 1.14, written by Peter Selinger 2001-2017
</metadata>
<g transform="translate(0.000000,512.000000) scale(0.100000,-0.100000)"
fill="#000000" stroke="none">
<path d="M3203 4151 c-479 -262 -814 -502 -1103 -791 -273 -271 -431 -505
-555 -820 -33 -83 -86 -251 -100 -314 -2 -12 -6 -32 -9 -46 -3 -13 -8 -42 -11
-65 -4 -22 -9 -53 -12 -70 -3 -16 -6 -82 -7 -145 -8 -379 146 -642 457 -785
62 -28 184 -68 247 -80 10 -2 49 -17 87 -34 447 -196 830 -159 1083 104 76 79
72 73 118 141 167 247 276 631 309 1084 13 185 6 617 -11 735 -3 17 -10 73
-16 125 -13 107 -16 132 -30 210 -6 30 -12 67 -15 83 -3 15 -7 38 -10 52 -3
14 -7 37 -10 53 -21 102 -94 367 -130 467 -62 173 -67 183 -87 188 -10 3 -92
-36 -195 -92z m-629 -1098 c68 -35 161 -143 216 -253 29 -57 26 -55 53 -42 12
6 60 22 107 35 239 67 386 1 381 -172 -2 -81 -28 -157 -91 -265 -22 -37 -40
-70 -40 -72 0 -2 42 -45 93 -96 145 -146 182 -251 125 -349 -48 -82 -158 -122
-336 -123 -95 -1 -103 -3 -107 -21 -49 -268 -133 -397 -260 -397 -92 0 -196
88 -279 236 -27 48 -50 86 -53 86 -2 0 -20 -7 -40 -15 -116 -49 -284 -67 -353
-39 -144 60 -153 225 -24 448 40 69 44 81 31 91 -34 25 -105 95 -144 141 -112
134 -119 263 -18 339 56 44 146 66 273 70 63 2 115 5 117 7 2 1 6 22 10 45 19
129 71 256 127 310 60 58 142 72 212 36z"/>
<path d="M2436 2977 c-54 -39 -87 -109 -116 -245 -13 -60 -14 -85 -6 -87 6 -2
49 -11 96 -21 46 -9 94 -20 106 -24 16 -6 31 -2 55 14 19 13 64 40 102 60 37
21 67 44 67 52 0 23 -87 157 -131 203 -66 67 -125 83 -173 48z"/>
<path d="M3035 2735 c-67 -12 -185 -51 -185 -61 0 -3 13 -44 29 -92 16 -48 32
-99 35 -114 3 -15 15 -29 25 -33 10 -3 56 -28 102 -55 45 -28 85 -50 89 -50
12 0 92 150 110 207 23 73 19 138 -11 169 -19 21 -43 29 -109 39 -8 1 -46 -3
-85 -10z"/>
<path d="M2700 2603 c-54 -31 -61 -38 -45 -44 11 -4 52 -21 92 -37 40 -16 74
-28 76 -25 3 2 -6 34 -19 70 -13 36 -24 68 -24 69 0 9 -20 1 -80 -33z"/>
<path d="M1980 2565 c-72 -19 -96 -32 -119 -61 -28 -35 -27 -79 4 -141 25 -49
124 -159 173 -191 23 -15 25 -14 64 31 22 26 57 65 78 88 l38 41 0 123 0 124
-97 -1 c-53 -1 -117 -6 -141 -13z"/>
<path d="M2299 2556 c-3 -49 -5 -146 -2 -146 2 0 36 26 76 57 40 32 74 59 76
60 10 7 -11 14 -78 27 -52 10 -71 11 -72 2z"/>
<path d="M2473 2446 c-163 -126 -173 -137 -167 -182 11 -102 17 -143 35 -231
10 -50 13 -53 62 -76 42 -20 188 -75 244 -92 12 -4 161 112 225 174 l36 36 -9
65 c-15 113 -19 134 -32 194 l-12 60 -100 41 c-55 23 -123 49 -151 57 l-52 15
-79 -61z m206 -120 c69 -36 101 -137 66 -210 -24 -51 -83 -89 -138 -89 -160 0
-220 198 -89 291 46 33 106 36 161 8z"/>
<path d="M2954 2298 c4 -24 10 -65 13 -93 3 -27 8 -52 10 -55 5 -5 103 100
103 110 0 6 -117 80 -126 80 -4 0 -3 -19 0 -42z"/>
<path d="M2190 2187 c-63 -74 -64 -77 -44 -92 11 -8 41 -26 68 -41 l48 -26 -6
28 c-3 16 -8 47 -11 69 -8 55 -16 99 -18 101 -1 2 -18 -16 -37 -39z"/>
<path d="M3140 2213 c0 -4 -33 -44 -72 -87 -40 -43 -75 -85 -78 -92 -3 -7 -4
-65 -2 -129 l3 -115 112 4 c168 6 248 42 262 119 9 46 -30 122 -99 195 -57 61
-126 118 -126 105z"/>
<path d="M2031 1972 c-74 -127 -98 -235 -64 -293 22 -36 57 -50 125 -50 64 0
231 41 266 66 1 1 -6 23 -17 49 -11 25 -21 48 -21 51 -1 30 -38 129 -49 136
-9 5 -54 32 -100 59 -46 28 -88 50 -92 50 -5 0 -26 -31 -48 -68z"/>
<path d="M2833 1904 c-39 -33 -72 -61 -72 -64 -1 -3 31 -12 70 -21 83 -19 81
-20 77 76 l-3 67 -72 -58z"/>
<path d="M2380 1877 c0 -12 43 -133 50 -140 4 -5 26 3 49 17 22 14 44 26 48
26 5 0 16 7 26 14 15 12 7 17 -70 47 -49 19 -91 36 -95 37 -5 2 -8 2 -8 -1z"/>
<path d="M2625 1749 c-22 -15 -43 -28 -46 -29 -4 0 -32 -15 -63 -34 l-56 -34
31 -58 c17 -33 38 -66 45 -75 8 -8 14 -19 14 -24 0 -14 94 -97 125 -110 55
-24 104 0 148 70 29 46 61 147 71 220 l7 51 -103 22 c-57 12 -110 24 -118 26
-8 2 -33 -9 -55 -25z"/>
</g>
</svg>
